M48
; DRILL file {KiCad 5.1.5+dfsg1-2} date Sat 27 Jun 2020 16:10:50 CEST
; FORMAT={-:-/ absolute / inch / decimal}
; #@! TF.CreationDate,2020-06-27T16:10:50+02:00
; #@! TF.GenerationSoftware,Kicad,Pcbnew,5.1.5+dfsg1-2
; #@! TF.FileFunction,NonPlated,1,2,NPTH
FMAT,2
INCH
T1C0.0669
T2C0.1575
%
G90
G05
T1
X2.05Y-3.0
X2.45Y-3.0
X5.8Y-3.0
X6.2Y-3.0
X1.3Y-2.25
X1.7Y-2.25
X5.05Y-2.25
X5.45Y-2.25
X4.3Y-3.0
X4.7Y-3.0
X6.55Y-3.75
X6.95Y-3.75
X2.8Y-3.0
X3.2Y-3.0
X4.3Y-1.5
X4.7Y-1.5
X3.55Y-1.5
X3.95Y-1.5
X2.8Y-3.75
X3.2Y-3.75
X3.55Y-3.75
X3.95Y-3.75
X5.8Y-1.5
X6.2Y-1.5
X2.8Y-1.5
X3.2Y-1.5
X5.8Y-3.75
X6.2Y-3.75
X5.05Y-1.5
X5.45Y-1.5
X2.05Y-2.25
X2.45Y-2.25
X2.05Y-3.75
X2.45Y-3.75
X1.3Y-3.75
X1.7Y-3.75
X3.55Y-2.25
X3.95Y-2.25
X3.55Y-3.0
X3.95Y-3.0
X4.3Y-3.75
X4.7Y-3.75
X1.3Y-3.0
X1.7Y-3.0
X5.05Y-3.75
X5.45Y-3.75
X2.8Y-2.25
X3.2Y-2.25
X1.3Y-1.5
X1.7Y-1.5
X6.55Y-3.0
X6.95Y-3.0
X6.55Y-1.5
X6.95Y-1.5
X6.55Y-2.25
X6.95Y-2.25
X2.05Y-1.5
X2.45Y-1.5
X5.05Y-3.0
X5.45Y-3.0
X5.8Y-2.25
X6.2Y-2.25
X4.3Y-2.25
X4.7Y-2.25
T2
X7.1Y-4.95
X3.0Y-2.25
X1.5Y-1.5
X6.75Y-3.0
X6.75Y-1.5
X6.75Y-2.25
X2.25Y-1.5
X5.25Y-3.0
X6.0Y-2.25
X4.5Y-2.25
X2.25Y-3.0
X6.0Y-3.0
X1.5Y-2.25
X5.25Y-2.25
X4.5Y-3.0
X6.75Y-3.75
X3.0Y-3.0
X1.15Y-4.3
X4.5Y-1.5
X3.75Y-1.5
X3.0Y-3.75
X3.75Y-3.75
X6.0Y-1.5
X3.0Y-1.5
X6.0Y-3.75
X5.25Y-1.5
X2.25Y-2.25
X2.25Y-3.75
X1.5Y-3.75
X3.75Y-2.25
X3.75Y-3.0
X4.5Y-3.75
X1.5Y-3.0
X5.25Y-3.75
T0
M30
