G04 #@! TF.GenerationSoftware,KiCad,Pcbnew,5.1.5+dfsg1-2*
G04 #@! TF.CreationDate,2020-06-27T16:10:21+02:00*
G04 #@! TF.ProjectId,opendeck,6f70656e-6465-4636-9b2e-6b696361645f,1*
G04 #@! TF.SameCoordinates,Original*
G04 #@! TF.FileFunction,Legend,Bot*
G04 #@! TF.FilePolarity,Positive*
%FSLAX46Y46*%
G04 Gerber Fmt 4.6, Leading zero omitted, Abs format (unit mm)*
G04 Created by KiCad (PCBNEW 5.1.5+dfsg1-2) date 2020-06-27 16:10:21*
%MOMM*%
%LPD*%
G04 APERTURE LIST*
%ADD10C,0.200000*%
%ADD11C,0.160000*%
G04 APERTURE END LIST*
D10*
X105837221Y-115490000D02*
X106162779Y-115490000D01*
X105837221Y-116510000D02*
X106162779Y-116510000D01*
X100090000Y-123362779D02*
X100090000Y-123037221D01*
X101110000Y-123362779D02*
X101110000Y-123037221D01*
X106362779Y-122910000D02*
X106037221Y-122910000D01*
X106362779Y-121890000D02*
X106037221Y-121890000D01*
X98690000Y-113562779D02*
X98690000Y-113237221D01*
X99710000Y-113562779D02*
X99710000Y-113237221D01*
X76162779Y-127910000D02*
X75837221Y-127910000D01*
X76162779Y-126890000D02*
X75837221Y-126890000D01*
X136090000Y-119762779D02*
X136090000Y-119437221D01*
X137110000Y-119762779D02*
X137110000Y-119437221D01*
X103290000Y-123362779D02*
X103290000Y-123037221D01*
X104310000Y-123362779D02*
X104310000Y-123037221D01*
X98490000Y-123362779D02*
X98490000Y-123037221D01*
X99510000Y-123362779D02*
X99510000Y-123037221D01*
X99710000Y-116837221D02*
X99710000Y-117162779D01*
X98690000Y-116837221D02*
X98690000Y-117162779D01*
X101690000Y-123362779D02*
X101690000Y-123037221D01*
X102710000Y-123362779D02*
X102710000Y-123037221D01*
D11*
X106642857Y-114828571D02*
X106690476Y-114885714D01*
X106833333Y-114942857D01*
X106928571Y-114942857D01*
X107071428Y-114885714D01*
X107166666Y-114771428D01*
X107214285Y-114657142D01*
X107261904Y-114428571D01*
X107261904Y-114257142D01*
X107214285Y-114028571D01*
X107166666Y-113914285D01*
X107071428Y-113800000D01*
X106928571Y-113742857D01*
X106833333Y-113742857D01*
X106690476Y-113800000D01*
X106642857Y-113857142D01*
X105690476Y-114942857D02*
X106261904Y-114942857D01*
X105976190Y-114942857D02*
X105976190Y-113742857D01*
X106071428Y-113914285D01*
X106166666Y-114028571D01*
X106261904Y-114085714D01*
X104785714Y-113742857D02*
X105261904Y-113742857D01*
X105309523Y-114314285D01*
X105261904Y-114257142D01*
X105166666Y-114200000D01*
X104928571Y-114200000D01*
X104833333Y-114257142D01*
X104785714Y-114314285D01*
X104738095Y-114428571D01*
X104738095Y-114714285D01*
X104785714Y-114828571D01*
X104833333Y-114885714D01*
X104928571Y-114942857D01*
X105166666Y-114942857D01*
X105261904Y-114885714D01*
X105309523Y-114828571D01*
X101028571Y-125757142D02*
X101085714Y-125709523D01*
X101142857Y-125566666D01*
X101142857Y-125471428D01*
X101085714Y-125328571D01*
X100971428Y-125233333D01*
X100857142Y-125185714D01*
X100628571Y-125138095D01*
X100457142Y-125138095D01*
X100228571Y-125185714D01*
X100114285Y-125233333D01*
X100000000Y-125328571D01*
X99942857Y-125471428D01*
X99942857Y-125566666D01*
X100000000Y-125709523D01*
X100057142Y-125757142D01*
X101142857Y-126709523D02*
X101142857Y-126138095D01*
X101142857Y-126423809D02*
X99942857Y-126423809D01*
X100114285Y-126328571D01*
X100228571Y-126233333D01*
X100285714Y-126138095D01*
X100342857Y-127566666D02*
X101142857Y-127566666D01*
X99885714Y-127328571D02*
X100742857Y-127090476D01*
X100742857Y-127709523D01*
X106842857Y-124628571D02*
X106890476Y-124685714D01*
X107033333Y-124742857D01*
X107128571Y-124742857D01*
X107271428Y-124685714D01*
X107366666Y-124571428D01*
X107414285Y-124457142D01*
X107461904Y-124228571D01*
X107461904Y-124057142D01*
X107414285Y-123828571D01*
X107366666Y-123714285D01*
X107271428Y-123600000D01*
X107128571Y-123542857D01*
X107033333Y-123542857D01*
X106890476Y-123600000D01*
X106842857Y-123657142D01*
X105890476Y-124742857D02*
X106461904Y-124742857D01*
X106176190Y-124742857D02*
X106176190Y-123542857D01*
X106271428Y-123714285D01*
X106366666Y-123828571D01*
X106461904Y-123885714D01*
X105557142Y-123542857D02*
X104938095Y-123542857D01*
X105271428Y-124000000D01*
X105128571Y-124000000D01*
X105033333Y-124057142D01*
X104985714Y-124114285D01*
X104938095Y-124228571D01*
X104938095Y-124514285D01*
X104985714Y-124628571D01*
X105033333Y-124685714D01*
X105128571Y-124742857D01*
X105414285Y-124742857D01*
X105509523Y-124685714D01*
X105557142Y-124628571D01*
X98142857Y-112757142D02*
X97571428Y-112423809D01*
X98142857Y-112185714D02*
X96942857Y-112185714D01*
X96942857Y-112566666D01*
X97000000Y-112661904D01*
X97057142Y-112709523D01*
X97171428Y-112757142D01*
X97342857Y-112757142D01*
X97457142Y-112709523D01*
X97514285Y-112661904D01*
X97571428Y-112566666D01*
X97571428Y-112185714D01*
X97057142Y-113138095D02*
X97000000Y-113185714D01*
X96942857Y-113280952D01*
X96942857Y-113519047D01*
X97000000Y-113614285D01*
X97057142Y-113661904D01*
X97171428Y-113709523D01*
X97285714Y-113709523D01*
X97457142Y-113661904D01*
X98142857Y-113090476D01*
X98142857Y-113709523D01*
X97057142Y-114090476D02*
X97000000Y-114138095D01*
X96942857Y-114233333D01*
X96942857Y-114471428D01*
X97000000Y-114566666D01*
X97057142Y-114614285D01*
X97171428Y-114661904D01*
X97285714Y-114661904D01*
X97457142Y-114614285D01*
X98142857Y-114042857D01*
X98142857Y-114661904D01*
X76833333Y-128914285D02*
X77166666Y-128914285D01*
X77166666Y-129542857D02*
X77166666Y-128342857D01*
X76690476Y-128342857D01*
X75976190Y-128914285D02*
X75833333Y-128971428D01*
X75785714Y-129028571D01*
X75738095Y-129142857D01*
X75738095Y-129314285D01*
X75785714Y-129428571D01*
X75833333Y-129485714D01*
X75928571Y-129542857D01*
X76309523Y-129542857D01*
X76309523Y-128342857D01*
X75976190Y-128342857D01*
X75880952Y-128400000D01*
X75833333Y-128457142D01*
X75785714Y-128571428D01*
X75785714Y-128685714D01*
X75833333Y-128800000D01*
X75880952Y-128857142D01*
X75976190Y-128914285D01*
X76309523Y-128914285D01*
X74785714Y-129542857D02*
X75357142Y-129542857D01*
X75071428Y-129542857D02*
X75071428Y-128342857D01*
X75166666Y-128514285D01*
X75261904Y-128628571D01*
X75357142Y-128685714D01*
X135628571Y-119433333D02*
X135685714Y-119385714D01*
X135742857Y-119242857D01*
X135742857Y-119147619D01*
X135685714Y-119004761D01*
X135571428Y-118909523D01*
X135457142Y-118861904D01*
X135228571Y-118814285D01*
X135057142Y-118814285D01*
X134828571Y-118861904D01*
X134714285Y-118909523D01*
X134600000Y-119004761D01*
X134542857Y-119147619D01*
X134542857Y-119242857D01*
X134600000Y-119385714D01*
X134657142Y-119433333D01*
X134942857Y-120290476D02*
X135742857Y-120290476D01*
X134485714Y-120052380D02*
X135342857Y-119814285D01*
X135342857Y-120433333D01*
X104228571Y-125833333D02*
X104285714Y-125785714D01*
X104342857Y-125642857D01*
X104342857Y-125547619D01*
X104285714Y-125404761D01*
X104171428Y-125309523D01*
X104057142Y-125261904D01*
X103828571Y-125214285D01*
X103657142Y-125214285D01*
X103428571Y-125261904D01*
X103314285Y-125309523D01*
X103200000Y-125404761D01*
X103142857Y-125547619D01*
X103142857Y-125642857D01*
X103200000Y-125785714D01*
X103257142Y-125833333D01*
X103657142Y-126404761D02*
X103600000Y-126309523D01*
X103542857Y-126261904D01*
X103428571Y-126214285D01*
X103371428Y-126214285D01*
X103257142Y-126261904D01*
X103200000Y-126309523D01*
X103142857Y-126404761D01*
X103142857Y-126595238D01*
X103200000Y-126690476D01*
X103257142Y-126738095D01*
X103371428Y-126785714D01*
X103428571Y-126785714D01*
X103542857Y-126738095D01*
X103600000Y-126690476D01*
X103657142Y-126595238D01*
X103657142Y-126404761D01*
X103714285Y-126309523D01*
X103771428Y-126261904D01*
X103885714Y-126214285D01*
X104114285Y-126214285D01*
X104228571Y-126261904D01*
X104285714Y-126309523D01*
X104342857Y-126404761D01*
X104342857Y-126595238D01*
X104285714Y-126690476D01*
X104228571Y-126738095D01*
X104114285Y-126785714D01*
X103885714Y-126785714D01*
X103771428Y-126738095D01*
X103714285Y-126690476D01*
X103657142Y-126595238D01*
X99428571Y-125833333D02*
X99485714Y-125785714D01*
X99542857Y-125642857D01*
X99542857Y-125547619D01*
X99485714Y-125404761D01*
X99371428Y-125309523D01*
X99257142Y-125261904D01*
X99028571Y-125214285D01*
X98857142Y-125214285D01*
X98628571Y-125261904D01*
X98514285Y-125309523D01*
X98400000Y-125404761D01*
X98342857Y-125547619D01*
X98342857Y-125642857D01*
X98400000Y-125785714D01*
X98457142Y-125833333D01*
X98342857Y-126166666D02*
X98342857Y-126833333D01*
X99542857Y-126404761D01*
X98028571Y-116833333D02*
X98085714Y-116785714D01*
X98142857Y-116642857D01*
X98142857Y-116547619D01*
X98085714Y-116404761D01*
X97971428Y-116309523D01*
X97857142Y-116261904D01*
X97628571Y-116214285D01*
X97457142Y-116214285D01*
X97228571Y-116261904D01*
X97114285Y-116309523D01*
X97000000Y-116404761D01*
X96942857Y-116547619D01*
X96942857Y-116642857D01*
X97000000Y-116785714D01*
X97057142Y-116833333D01*
X96942857Y-117690476D02*
X96942857Y-117500000D01*
X97000000Y-117404761D01*
X97057142Y-117357142D01*
X97228571Y-117261904D01*
X97457142Y-117214285D01*
X97914285Y-117214285D01*
X98028571Y-117261904D01*
X98085714Y-117309523D01*
X98142857Y-117404761D01*
X98142857Y-117595238D01*
X98085714Y-117690476D01*
X98028571Y-117738095D01*
X97914285Y-117785714D01*
X97628571Y-117785714D01*
X97514285Y-117738095D01*
X97457142Y-117690476D01*
X97400000Y-117595238D01*
X97400000Y-117404761D01*
X97457142Y-117309523D01*
X97514285Y-117261904D01*
X97628571Y-117214285D01*
X102428571Y-125757142D02*
X102485714Y-125709523D01*
X102542857Y-125566666D01*
X102542857Y-125471428D01*
X102485714Y-125328571D01*
X102371428Y-125233333D01*
X102257142Y-125185714D01*
X102028571Y-125138095D01*
X101857142Y-125138095D01*
X101628571Y-125185714D01*
X101514285Y-125233333D01*
X101400000Y-125328571D01*
X101342857Y-125471428D01*
X101342857Y-125566666D01*
X101400000Y-125709523D01*
X101457142Y-125757142D01*
X102542857Y-126709523D02*
X102542857Y-126138095D01*
X102542857Y-126423809D02*
X101342857Y-126423809D01*
X101514285Y-126328571D01*
X101628571Y-126233333D01*
X101685714Y-126138095D01*
X102542857Y-127661904D02*
X102542857Y-127090476D01*
X102542857Y-127376190D02*
X101342857Y-127376190D01*
X101514285Y-127280952D01*
X101628571Y-127185714D01*
X101685714Y-127090476D01*
M02*
