M48
; DRILL file {KiCad 5.1.5+dfsg1-2} date Sat 27 Jun 2020 16:10:50 CEST
; FORMAT={-:-/ absolute / inch / decimal}
; #@! TF.CreationDate,2020-06-27T16:10:50+02:00
; #@! TF.GenerationSoftware,Kicad,Pcbnew,5.1.5+dfsg1-2
; #@! TF.FileFunction,Plated,1,2,PTH
FMAT,2
INCH
T1C0.0118
T2C0.0236
T3C0.0315
T4C0.0335
T5C0.0394
T6C0.0591
%
G90
G05
T1
X1.18Y-2.749
X1.18Y-3.499
X1.18Y-1.999
X1.365Y-1.925
X1.365Y-2.675
X1.365Y-3.425
X1.589Y-4.075
X1.622Y-1.5984
X1.622Y-1.8268
X1.622Y-2.3465
X1.622Y-2.6063
X1.622Y-3.0945
X1.622Y-3.3465
X1.622Y-3.8268
X2.1024Y-3.2126
X2.126Y-2.4331
X2.1654Y-3.1811
X2.1654Y-3.9291
X2.17Y-1.68
X2.17Y-2.47
X2.2146Y-3.9656
X2.215Y-1.715
X2.2854Y-2.4656
X2.2854Y-1.6821
X2.2854Y-3.1821
X2.2854Y-3.9321
X2.3307Y-3.9606
X2.335Y-1.715
X2.3386Y-2.4321
X2.339Y-4.075
X2.3465Y-3.2126
X2.3701Y-3.0945
X2.3701Y-1.5984
X2.3701Y-1.8504
X2.3701Y-2.3465
X2.3701Y-2.6063
X2.3701Y-3.3465
X2.3701Y-3.8268
X2.811Y-1.7165
X2.8583Y-3.2126
X2.8661Y-1.685
X2.874Y-2.4646
X2.8976Y-3.9606
X2.9055Y-1.622
X2.9134Y-1.7156
X2.92Y-2.43
X2.92Y-3.1821
X2.9449Y-4.0177
X2.9646Y-1.6821
X3.03Y-1.75
X3.0354Y-2.4656
X3.0354Y-3.1821
X3.0354Y-3.9656
X3.0354Y-1.6821
X3.0787Y-1.622
X3.0837Y-3.9321
X3.089Y-4.075
X3.0945Y-3.2126
X3.1024Y-2.4321
X3.1102Y-4.8583
X3.1102Y-4.9134
X3.1102Y-4.9685
X3.1181Y-1.5591
X3.1181Y-1.8504
X3.1181Y-2.3465
X3.1181Y-2.6063
X3.1181Y-3.3465
X3.1181Y-3.8268
X3.1181Y-3.0945
X3.1752Y-4.7835
X3.5546Y-4.6457
X3.5546Y-4.5669
X3.5546Y-4.4882
X3.5906Y-1.7165
X3.6142Y-3.2126
X3.622Y-1.5965
X3.622Y-2.43
X3.622Y-3.9606
X3.6614Y-1.7156
X3.6614Y-2.3701
X3.6614Y-2.4646
X3.6693Y-3.1811
X3.6693Y-3.9921
X3.6693Y-3.9291
X3.7146Y-2.4656
X3.7154Y-1.683
X3.7854Y-1.7156
X3.7854Y-2.4321
X3.7854Y-3.2156
X3.7854Y-3.9656
X3.8346Y-1.6929
X3.8425Y-3.9291
X3.8425Y-3.9921
X3.8483Y-3.3717
X3.8504Y-1.5748
X3.8504Y-2.4882
X3.8583Y-3.1821
X3.874Y-1.9291
X3.874Y-2.6063
X3.874Y-3.0945
X3.874Y-3.8268
X3.8898Y-1.6319
X3.8976Y-2.4409
X3.8976Y-4.8189
X3.8976Y-4.8819
X3.9Y-1.72
X3.901Y-4.075
X3.9055Y-4.4331
X3.9055Y-4.5748
X3.9055Y-4.6378
X3.9291Y-3.9055
X3.9291Y-3.9685
X3.9291Y-4.0236
X3.937Y-1.9291
X3.9449Y-2.4882
X3.9606Y-3.3622
X3.9606Y-3.3071
X3.9606Y-3.4173
X3.9606Y-3.5276
X3.9606Y-4.8819
X3.9606Y-3.4724
X3.9685Y-2.3858
X3.9685Y-2.4409
X3.9685Y-2.6535
X3.9709Y-2.541
X3.9764Y-3.252
X3.9764Y-3.1969
X3.9764Y-3.874
X3.9764Y-3.937
X3.9764Y-4.0
X4.0236Y-3.3071
X4.0236Y-4.8189
X4.0236Y-4.874
X4.0295Y-2.5433
X4.0506Y-3.378
X4.0531Y-2.4882
X4.0709Y-2.4331
X4.0866Y-1.7717
X4.0866Y-4.8819
X4.0866Y-3.9764
X4.1339Y-3.622
X4.1417Y-4.5669
X4.1496Y-4.0
X4.1575Y-2.4252
X4.1575Y-3.5669
X4.1732Y-2.5276
X4.1811Y-3.5197
X4.2047Y-2.5748
X4.2047Y-3.4646
X4.2047Y-4.5669
X4.2126Y-3.9843
X4.2126Y-4.8189
X4.2205Y-4.748
X4.2283Y-4.0394
X4.3071Y-4.0394
X4.3307Y-4.7874
X4.365Y-3.425
X4.365Y-2.675
X4.3833Y-4.0733
X4.6142Y-1.5984
X4.6142Y-1.8425
X4.6142Y-2.3465
X4.6142Y-2.5906
X4.6142Y-3.0945
X4.6142Y-3.3228
X4.9213Y-4.4178
X4.9213Y-4.5748
X4.9604Y-4.7094
X4.9764Y-4.5433
X5.0Y-4.4178
X5.063Y-4.5984
X5.1102Y-1.7165
X5.1102Y-3.2126
X5.1102Y-4.5148
X5.1181Y-3.9606
X5.126Y-2.4646
X5.17Y-1.68
X5.17Y-3.18
X5.1701Y-3.9295
X5.1708Y-2.4331
X5.189Y-4.4094
X5.2756Y-4.7638
X5.2854Y-1.6821
X5.2854Y-2.4321
X5.2854Y-3.1821
X5.2854Y-3.9321
X5.2854Y-4.8622
X5.3386Y-4.7795
X5.3465Y-2.4646
X5.3465Y-3.9685
X5.3543Y-1.7165
X5.3543Y-3.2156
X5.3701Y-1.5984
X5.3701Y-1.8425
X5.3701Y-2.3465
X5.3701Y-2.5906
X5.3701Y-3.0945
X5.3701Y-3.3228
X5.3817Y-4.7364
X5.3858Y-4.6841
X5.4016Y-3.9291
X5.4094Y-3.2411
X5.4094Y-4.0315
X5.4114Y-4.41
X5.4331Y-2.5354
X5.4331Y-3.3307
X5.4485Y-3.9961
X5.4488Y-3.8976
X5.4626Y-3.2591
X5.4626Y-3.2044
X5.4705Y-2.63
X5.4724Y-2.4961
X5.4724Y-3.0945
X5.4724Y-3.1496
X5.4803Y-2.4331
X5.4803Y-4.0472
X5.4882Y-3.3622
X5.4941Y-2.5827
X5.5118Y-1.748
X5.5118Y-3.9685
X5.5157Y-4.6969
X5.5197Y-3.315
X5.5401Y-3.9214
X5.5407Y-3.2677
X5.5431Y-1.8117
X5.5433Y-2.4252
X5.5433Y-1.8819
X5.5512Y-1.685
X5.5556Y-4.7215
X5.5657Y-3.9859
X5.5685Y-1.7464
X5.5707Y-3.2205
X5.5984Y-3.9055
X5.5984Y-4.0394
X5.624Y-2.4646
X5.6299Y-3.9606
X5.6457Y-1.7008
X5.6535Y-2.4173
X5.6535Y-3.1811
X5.6609Y-4.626
X5.6609Y-4.7835
X5.6772Y-2.4961
X5.6772Y-3.126
X5.6831Y-1.7874
X5.7008Y-2.5433
X5.7008Y-3.0709
X5.7028Y-1.8346
X5.7165Y-1.748
X5.7244Y-3.2441
X5.7244Y-3.3071
X5.7288Y-2.5906
X5.7399Y-3.9606
X5.7402Y-4.0264
X5.7402Y-3.1496
X5.7402Y-3.8976
X5.748Y-1.622
X5.753Y-2.4291
X5.7559Y-2.4961
X5.7874Y-3.2441
X5.7874Y-3.9291
X5.7874Y-3.9949
X5.811Y-2.4016
X5.811Y-2.4646
X5.865Y-3.425
X5.865Y-2.675
X5.865Y-1.925
X5.9606Y-2.5276
X5.9646Y-3.1821
X5.9646Y-3.9321
X5.9646Y-1.7156
X5.9646Y-2.4321
X6.0315Y-1.7559
X6.0354Y-2.4656
X6.08Y-2.43
X6.08Y-3.18
X6.08Y-3.93
X6.0866Y-1.7237
X6.1181Y-3.3228
X6.1181Y-1.5984
X6.1181Y-1.8425
X6.1181Y-2.3465
X6.1181Y-2.5906
X6.1181Y-3.0945
X6.1204Y-1.6834
X6.4791Y-4.3872
X6.67Y-3.21
X6.67Y-3.96
X6.7854Y-3.2156
X6.7854Y-3.9656
T3
X4.6063Y-4.6437
X4.6063Y-4.8358
T4
X3.0379Y-4.6978
X3.0379Y-4.8947
T5
X6.4173Y-4.6063
X6.4173Y-4.8622
X6.5945Y-4.6063
X6.5945Y-4.8622
X6.8673Y-4.435
X6.8673Y-4.535
X6.8673Y-4.635
X6.9673Y-4.435
X6.9673Y-4.535
X6.9673Y-4.635
T6
X3.6Y-2.9
X3.85Y-2.8
X4.35Y-3.65
X4.6Y-3.55
X1.35Y-2.9
X1.6Y-2.8
X5.1Y-3.65
X5.35Y-3.55
X2.85Y-2.15
X3.1Y-2.05
X1.35Y-1.4
X1.6Y-1.3
X6.6Y-2.9
X6.85Y-2.8
X6.6Y-1.4
X6.85Y-1.3
X6.6Y-2.15
X6.85Y-2.05
X2.1Y-1.4
X2.35Y-1.3
X5.1Y-2.9
X5.35Y-2.8
X5.85Y-2.15
X6.1Y-2.05
X4.35Y-2.15
X4.6Y-2.05
X2.1Y-2.9
X2.35Y-2.8
X5.85Y-2.9
X6.1Y-2.8
X1.35Y-2.15
X1.6Y-2.05
X5.1Y-2.15
X5.35Y-2.05
X4.35Y-2.9
X4.6Y-2.8
X6.6Y-3.65
X6.85Y-3.55
X2.85Y-2.9
X3.1Y-2.8
X4.35Y-1.4
X4.6Y-1.3
X3.6Y-1.4
X3.85Y-1.3
X2.85Y-3.65
X3.1Y-3.55
X3.6Y-3.65
X3.85Y-3.55
X5.85Y-1.4
X6.1Y-1.3
X2.85Y-1.4
X3.1Y-1.3
X5.85Y-3.65
X6.1Y-3.55
X5.1Y-1.4
X5.35Y-1.3
X2.1Y-2.15
X2.35Y-2.05
X2.1Y-3.65
X2.35Y-3.55
X1.35Y-3.65
X1.6Y-3.55
X3.6Y-2.15
X3.85Y-2.05
T2
G00X2.9178Y-4.6585
M15
G01X2.9454Y-4.6585
M16
G05
G00X2.9454Y-4.9341
M15
G01X2.9178Y-4.9341
M16
G05
T0
M30
